<svg width="27" height="31" viewBox="0 0 27 31" fill="none" xmlns="http://www.w3.org/2000/svg">
<path fill-rule="evenodd" clip-rule="evenodd" d="M13.5 0C14.0114 0 14.5019 0.204106 14.8635 0.567418C15.2251 0.930729 15.4282 1.42348 15.4282 1.93728V24.3827L23.7042 16.064C23.8834 15.8838 24.0963 15.741 24.3305 15.6435C24.5647 15.546 24.8158 15.4958 25.0693 15.4958C25.3229 15.4958 25.5739 15.546 25.8082 15.6435C26.0424 15.741 26.2552 15.8838 26.4345 16.064C26.6138 16.2441 26.756 16.4579 26.853 16.6932C26.9501 16.9286 27 17.1808 27 17.4356C27 17.6903 26.9501 17.9425 26.853 18.1779C26.756 18.4132 26.6138 18.627 26.4345 18.8071L14.8652 30.4309C14.6861 30.6113 14.4733 30.7544 14.239 30.8521C14.0048 30.9497 13.7536 31 13.5 31C13.2464 31 12.9952 30.9497 12.761 30.8521C12.5267 30.7544 12.3139 30.6113 12.1348 30.4309L0.565477 18.8071C0.386199 18.627 0.243988 18.4132 0.146963 18.1779C0.0499381 17.9425 0 17.6903 0 17.4356C0 17.1808 0.0499381 16.9286 0.146963 16.6932C0.243988 16.4579 0.386199 16.2441 0.565477 16.064C0.927546 15.7002 1.41862 15.4958 1.93066 15.4958C2.1842 15.4958 2.43525 15.546 2.66949 15.6435C2.90373 15.741 3.11656 15.8838 3.29584 16.064L11.5718 24.3827V1.93728C11.5718 1.42348 11.7749 0.930729 12.1365 0.567418C12.4982 0.204106 12.9886 0 13.5 0Z" fill="#424242"/>
</svg>
