<svg width="50" height="50" viewBox="0 0 50 50" fill="none" xmlns="http://www.w3.org/2000/svg">
<path fill-rule="evenodd" clip-rule="evenodd" d="M19.6436 18.6857H27.3811V22.5399C28.4957 20.3232 31.354 18.3316 35.6478 18.3316C43.879 18.3316 45.8332 22.7441 45.8332 30.8399V45.8337H37.4998V32.6837C37.4998 28.0732 36.3853 25.4732 33.5478 25.4732C29.6123 25.4732 27.9769 28.2753 27.9769 32.6816V45.8337H19.6436V18.6857V18.6857ZM5.354 45.4795H13.6873V18.3316H5.354V45.4795V45.4795ZM14.8811 9.47949C14.8814 10.178 14.7429 10.8696 14.4736 11.514C14.2043 12.1585 13.8095 12.7431 13.3123 13.2337C12.3048 14.235 10.9411 14.7954 9.52067 14.792C8.10273 14.791 6.74215 14.232 5.73317 13.2357C5.23778 12.7435 4.84439 12.1583 4.57555 11.5137C4.30672 10.8692 4.16771 10.1779 4.1665 9.47949C4.1665 8.06908 4.729 6.71908 5.73525 5.72324C6.74335 4.72566 8.1045 4.16637 9.52275 4.16699C10.9436 4.16699 12.3061 4.72741 13.3123 5.72324C14.3165 6.71908 14.8811 8.06908 14.8811 9.47949Z" fill="#424242"/>
</svg>
